<mxfile host="app.diagrams.net" modified="2022-01-28T22:52:00.326Z" agent="5.0 (Windows NT 10.0; Win64; x64) AppleWebKit/537.36 (KHTML, like Gecko) Chrome/100.0.4857.0 Safari/537.36" etag="ZBTKEc5dV7VNhBiPsxM3" version="16.5.2" type="github">
  <diagram id="XVNwGBKXXiUCmIGjzJBJ" name="Page-1">
    <mxGraphModel dx="900" dy="1062" grid="1" gridSize="10" guides="1" tooltips="1" connect="1" arrows="1" fold="1" page="1" pageScale="1" pageWidth="827" pageHeight="1169" math="0" shadow="0">
      <root>
        <mxCell id="0" />
        <mxCell id="1" parent="0" />
      </root>
    </mxGraphModel>
  </diagram>
</mxfile>
